<svg xmlns="http://www.w3.org/2000/svg" viewBox="0 0 75 75"><defs><style>.a{fill:none;stroke:#efc337;stroke-miterlimit:10;stroke-width:1.1px;}</style></defs><g transform="translate(4805 13936)"><circle cx="37.5" cy="37.5" r="37.5" transform="translate(-4805 -13936)"/><g transform="translate(-4811.567 -13926.303)"><path class="a" d="M46.431,57.639c0-5.965.05-11.631,0-18.739C44.841,41.385,35.894,55.4,34.8,57.192" transform="translate(-4.325 -14.434)"/><path class="a" d="M65.2,55.6h7.058" transform="translate(-19.615 -22.833)"/><path class="a" d="M45.237,10.3V39.179h17.4S48.717,15.618,45.237,10.2c-2.386,3.579-17.6,26.444-19.037,28.581,2.982,0,9.941.05,15.558,0" transform="translate(0)"/><path class="a" d="M80.4,47.1v8.251" transform="translate(-27.259 -18.558)"/><path class="a" d="M65.4,68.5" transform="translate(-19.715 -29.321)"/></g></g></svg>